<svg
  width="64"
  height="65"
  viewBox="0 0 64 65"
  fill="none"
  xmlns="http://www.w3.org/2000/svg"
>
  <path
    d="M53.3333 8.57141H10.6667C4.8 8.57141 0 13.3714 0 19.2381V45.9047C0 51.7714 4.8 56.5714 10.6667 56.5714H53.3333C59.2 56.5714 64 51.7714 64 45.9047V19.2381C64 13.3714 59.2 8.57141 53.3333 8.57141ZM57.6 24.0381L36.5333 38.1714C35.2 38.9714 33.6 39.5047 32 39.5047C30.4 39.5047 28.8 38.9714 27.4667 38.1714L6.4 24.0381C5.33333 23.2381 5.06667 21.6381 5.86667 20.3047C6.66667 19.2381 8.26667 18.9714 9.6 19.7714L30.6667 33.9047C31.4667 34.4381 32.8 34.4381 33.6 33.9047L54.6667 19.7714C56 18.9714 57.6 19.2381 58.4 20.5714C58.9333 21.6381 58.6667 23.2381 57.6 24.0381Z"
    fill="#F05454"
  />
</svg>
