<svg
  width="64"
  height="65"
  viewBox="0 0 64 65"
  fill="none"
  xmlns="http://www.w3.org/2000/svg"
>
  <path
    d="M53.3692 3.672H10.0902C7.84173 3.672 5.68527 4.56522 4.09533 6.15517C2.50536 7.74515 1.61214 9.90158 1.61214 12.1501V55.4291C1.61214 57.6778 2.50536 59.8342 4.09533 61.4241C5.68527 63.0139 7.84173 63.9073 10.0902 63.9073H29.7872V41.9214H22.3406V33.3454H29.7872V27.0282C29.7872 23.448 30.7773 20.6659 32.7575 18.6894C34.7378 16.7092 37.422 15.7153 40.8139 15.7153C44.2097 15.7153 46.4083 15.8471 47.4135 16.0955V23.7304H42.8883C41.2544 23.7304 40.1401 24.0767 39.5415 24.7694C38.9466 25.4584 38.6492 26.4974 38.6492 27.8791V33.3454H47.1311L46.0017 41.9214H38.6492V63.9073H53.3692C55.6179 63.9073 57.7743 63.0139 59.3641 61.4241C60.9544 59.8342 61.8473 57.6778 61.8473 55.4291V12.1501C61.8473 9.90158 60.9544 7.74515 59.3641 6.15517C57.7743 4.56522 55.6179 3.672 53.3692 3.672Z"
    fill="#F05454"
  />
</svg>
