<svg
  width="64"
  height="74"
  viewBox="0 0 64 74"
  fill="none"
  xmlns="http://www.w3.org/2000/svg"
>
  <path
    d="M57.1429 4.57141H6.85714C3.07143 4.57141 0 7.64284 0 11.4286V61.7143C0 65.5 3.07143 68.5714 6.85714 68.5714H57.1429C60.9286 68.5714 64 65.5 64 61.7143V11.4286C64 7.64284 60.9286 4.57141 57.1429 4.57141ZM39.6143 59.3857C38.4143 59.6 37.9714 58.8571 37.9714 58.2428C37.9714 57.4714 38 53.5286 38 50.3428C38 48.1143 37.2571 46.7 36.3857 45.9571C41.6714 45.3714 47.2429 44.6428 47.2429 35.5143C47.2429 32.9143 46.3143 31.6143 44.8 29.9428C45.0429 29.3286 45.8571 26.8 44.5571 23.5143C42.5714 22.9 38.0286 26.0714 38.0286 26.0714C36.1429 25.5428 34.1 25.2714 32.0857 25.2714C30.0714 25.2714 28.0286 25.5428 26.1429 26.0714C26.1429 26.0714 21.6 22.9 19.6143 23.5143C18.3143 26.7857 19.1143 29.3143 19.3714 29.9428C17.8571 31.6143 17.1429 32.9143 17.1429 35.5143C17.1429 44.6 22.4714 45.3714 27.7571 45.9571C27.0714 46.5714 26.4571 47.6286 26.2429 49.1428C24.8857 49.7571 21.4143 50.8143 19.3429 47.1571C18.0429 44.9 15.7 44.7143 15.7 44.7143C13.3857 44.6857 15.5429 46.1714 15.5429 46.1714C17.0857 46.8857 18.1714 49.6286 18.1714 49.6286C19.5571 53.8714 26.1857 52.4428 26.1857 52.4428C26.1857 54.4286 26.2143 57.6571 26.2143 58.2428C26.2143 58.8571 25.7857 59.6 24.5714 59.3857C15.1429 56.2286 8.54286 47.2571 8.54286 36.7714C8.54286 23.6571 18.5714 13.7 31.6857 13.7C44.8 13.7 55.4286 23.6571 55.4286 36.7714C55.4429 47.2571 49.0429 56.2428 39.6143 59.3857ZM25.6 50.6571C25.3286 50.7143 25.0714 50.6 25.0429 50.4143C25.0143 50.2 25.2 50.0143 25.4714 49.9571C25.7429 49.9286 26 50.0428 26.0286 50.2286C26.0714 50.4143 25.8857 50.6 25.6 50.6571ZM24.2429 50.5286C24.2429 50.7143 24.0286 50.8714 23.7429 50.8714C23.4286 50.9 23.2143 50.7428 23.2143 50.5286C23.2143 50.3428 23.4286 50.1857 23.7143 50.1857C23.9857 50.1571 24.2429 50.3143 24.2429 50.5286ZM22.2857 50.3714C22.2286 50.5571 21.9429 50.6428 21.7 50.5571C21.4286 50.5 21.2429 50.2857 21.3 50.1C21.3571 49.9143 21.6429 49.8286 21.8857 49.8857C22.1714 49.9714 22.3571 50.1857 22.2857 50.3714ZM20.5286 49.6C20.4 49.7571 20.1286 49.7286 19.9143 49.5143C19.7 49.3286 19.6429 49.0571 19.7857 48.9286C19.9143 48.7714 20.1857 48.8 20.4 49.0143C20.5857 49.2 20.6571 49.4857 20.5286 49.6ZM19.2286 48.3C19.1 48.3857 18.8571 48.3 18.7 48.0857C18.5429 47.8714 18.5429 47.6286 18.7 47.5286C18.8571 47.4 19.1 47.5 19.2286 47.7143C19.3857 47.9286 19.3857 48.1857 19.2286 48.3ZM18.3 46.9143C18.1714 47.0428 17.9571 46.9714 17.8 46.8286C17.6429 46.6428 17.6143 46.4286 17.7429 46.3286C17.8714 46.2 18.0857 46.2714 18.2429 46.4143C18.4 46.6 18.4286 46.8143 18.3 46.9143ZM17.3429 45.8571C17.2857 45.9857 17.1 46.0143 16.9429 45.9143C16.7571 45.8286 16.6714 45.6714 16.7286 45.5428C16.7857 45.4571 16.9429 45.4143 17.1286 45.4857C17.3143 45.5857 17.4 45.7428 17.3429 45.8571Z"
    fill="#F05454"
  />
</svg>
