<svg width="200" height="200" viewBox="0 0 200 200" fill="none" xmlns="http://www.w3.org/2000/svg">
<path d="M100 132C117.673 132 132 117.673 132 100C132 82.3269 117.673 68 100 68C82.3269 68 68 82.3269 68 100C68 117.673 82.3269 132 100 132Z" fill="#F05454"/>
<path d="M144 0H56C41.1479 0 26.9041 5.89998 16.402 16.402C5.89998 26.9041 0 41.1479 0 56V144C0 158.852 5.89998 173.096 16.402 183.598C26.9041 194.1 41.1479 200 56 200H144C158.852 200 173.096 194.1 183.598 183.598C194.1 173.096 200 158.852 200 144V56C200 41.1479 194.1 26.9041 183.598 16.402C173.096 5.89998 158.852 0 144 0ZM100 148C90.5065 148 81.2262 145.185 73.3326 139.911C65.4391 134.636 59.2868 127.14 55.6538 118.369C52.0208 109.598 51.0702 99.9468 52.9223 90.6357C54.7744 81.3246 59.346 72.7718 66.0589 66.0589C72.7718 59.346 81.3246 54.7744 90.6357 52.9223C99.9468 51.0702 109.598 52.0208 118.369 55.6538C127.14 59.2868 134.636 65.4391 139.911 73.3326C145.185 81.2262 148 90.5065 148 100C148 112.73 142.943 124.939 133.941 133.941C124.939 142.943 112.73 148 100 148ZM152 60C149.627 60 147.307 59.2962 145.333 57.9776C143.36 56.6591 141.822 54.7849 140.913 52.5922C140.005 50.3995 139.768 47.9867 140.231 45.6589C140.694 43.3311 141.836 41.1929 143.515 39.5147C145.193 37.8365 147.331 36.6936 149.659 36.2306C151.987 35.7676 154.399 36.0052 156.592 36.9134C158.785 37.8217 160.659 39.3598 161.978 41.3332C163.296 43.3066 164 45.6266 164 48C164 51.1826 162.736 54.2348 160.485 56.4853C158.235 58.7357 155.183 60 152 60Z" fill="#F05454"/>
</svg>
