<svg
  width="64"
  height="65"
  viewBox="0 0 64 65"
  fill="none"
  xmlns="http://www.w3.org/2000/svg"
>
  <path
    d="M33.9468 31.1654V31.0785C33.9287 31.1078 33.9095 31.1372 33.8903 31.1654H33.9468Z"
    fill="#F05454"
  />
  <path
    d="M55.6146 5.83997H8.0659C5.79007 5.83997 3.94434 7.64167 3.94434 9.86219V57.9675C3.94434 60.1869 5.79007 61.9886 8.0659 61.9886H55.6146C57.8939 61.9886 59.7396 60.1857 59.7396 57.9675V9.86219C59.7396 7.64054 57.8927 5.83997 55.6146 5.83997ZM20.8562 52.8434H12.4291V27.4898H20.8562V52.8434ZM16.6432 24.0263H16.5867C13.76 24.0263 11.9312 22.079 11.9312 19.6463C11.9312 17.1593 13.8165 15.2662 16.6985 15.2662C19.5817 15.2662 21.3552 17.1593 21.4116 19.6463C21.4116 22.079 19.5806 24.0263 16.6432 24.0263ZM51.2447 52.8434H42.8176V39.2765C42.8176 35.8695 41.5984 33.544 38.5492 33.544C36.2215 33.544 34.8352 35.112 34.2245 36.627C34.0021 37.1677 33.9479 37.9241 33.9479 38.6827V52.8423H25.5208C25.5208 52.8423 25.6314 29.8649 25.5208 27.4886H33.9479V31.0774C35.0678 29.3502 37.0704 26.8903 41.5442 26.8903C47.0881 26.8903 51.2458 30.5152 51.2458 38.3034L51.2447 52.8434Z"
    fill="#F05454"
  />
</svg>
