<svg
  width="64"
  height="65"
  viewBox="0 0 64 65"
  fill="none"
  xmlns="http://www.w3.org/2000/svg"
>
  <path
    d="M32.4107 29.1835L21.5698 14.0145H15.7878L29.2168 32.8036L30.9072 35.1672L42.4017 51.2636H48.1838L34.0939 31.5471L32.4107 29.1835Z"
    fill="#F05454"
  />
  <path
    d="M56.4261 3.23804H7.5739C4.86361 3.23804 2.66667 5.43498 2.66667 8.14526V56.9975C2.66667 59.7078 4.86361 61.9047 7.5739 61.9047H56.4261C59.1364 61.9047 61.3333 59.7078 61.3333 56.9975V8.14526C61.3333 5.43498 59.1364 3.23804 56.4261 3.23804ZM40.6276 53.9047L28.9941 37.3367L14.4305 53.9047H10.6667L27.325 34.9589L10.6667 11.238H23.3724L34.3861 26.9233L48.1856 11.238H51.9492L36.064 29.3064L53.3333 53.9047H40.6276Z"
    fill="#F05454"
  />
</svg>
