<svg
  width="100"
  height="100"
  viewBox="0 0 100 100"
  fill="none"
  xmlns="http://www.w3.org/2000/svg"
>
  <rect width="100" height="100" fill="#222831" />
  <path
    d="M43 66C43 75.5 58.8877 73.0404 64 70.5C69.1123 67.9596 73.786 63.492 76.5363 58.4895C79.2866 53.4869 80.442 47.7632 79.8478 42.0855C79.2536 36.4078 76.9381 31.0474 73.2116 26.7226C69.4852 22.3979 64.5259 19.3156 58.9983 17.8887C53.4708 16.4619 47.6392 16.7587 42.2851 18.7394C36.931 20.72 32.3102 24.29 29.0421 28.9707C25.774 33.6514 24.0147 40.5084 24 46.2171V85.7891C27.1344 84.1424 29.3723 82.8458 32.5 80.5C34.5 79 36.5 76.5 36.6047 74.8548V44.9604C36.6128 41.8216 37.5801 38.7602 39.377 36.1866C41.1739 33.613 43.7145 31.6501 46.6584 30.5611C49.6022 29.472 52.8086 29.3089 55.8479 30.0934C58.8871 30.8779 61.6139 32.5727 63.6628 34.9505C65.7117 37.3284 66.9848 40.2757 67.3115 43.3975C67.6383 46.5193 67.0029 49.6664 65.4908 52.4169C63.9786 55.1675 61.6618 57.3901 58.8508 58.7869C56.1717 60.1182 54.6472 60.9222 42.8216 60.9946M41 61C41.6331 61 42.2398 60.9982 42.8216 60.9946M42.8216 60.9946L43 43.5C43 40 45 37 48.5 37H55H51.5H54.5C54.5 37 56.8284 37 58 37C59.5 37 60 37 60.5 36.5"
    stroke="#F05454"
    stroke-width="4"
  />
</svg>
