<svg width="817" height="663" viewBox="0 0 817 663" fill="none" xmlns="http://www.w3.org/2000/svg">
<g clip-path="url(#clip0)">
<path d="M550.011 608.1C512.014 608.201 474.054 605.714 436.395 600.655C435.166 600.498 433.92 600.323 432.681 600.138C423.438 598.823 414.189 597.321 405.198 595.671C364.737 588.272 326.582 577.465 291.793 563.549C176.022 517.24 103.232 527.096 62.556 543.518C18.5355 561.291 1.61381 590.368 1.44795 590.66L0 589.838C0.16788 589.542 17.3079 560.031 61.8093 542.024C87.9012 531.466 118.17 526.852 151.782 528.306C193.739 530.123 241.053 541.46 292.411 562.003C327.097 575.877 365.146 586.654 405.498 594.034C414.467 595.679 423.694 597.179 432.921 598.49C434.154 598.674 435.389 598.848 436.615 599.005C538.697 613.047 637.175 604.579 701.816 595.003C755.096 587.11 789.384 577.882 789.724 577.79L790.16 579.397C789.82 579.489 755.445 588.742 702.06 596.65C651.722 604.147 600.905 607.974 550.011 608.1V608.1Z" fill="#3F3D56"/>
<path d="M550.124 130.266C520.775 130.266 492.202 128.893 464.635 126.147C401.289 119.838 343.136 106.226 291.793 85.6891C176.022 39.38 103.232 49.2351 62.556 65.6581C18.5355 83.4302 1.61381 112.508 1.44795 112.8L0 111.978C0.16788 111.682 17.3079 82.1717 61.8093 64.1642C87.9016 53.6058 118.17 48.9896 151.782 50.4457C193.739 52.2623 241.053 63.5996 292.411 84.1428C408.364 130.524 537.392 132.347 625.214 125.714C720.404 118.522 789.042 100.115 789.724 99.9304L790.16 101.537C789.477 101.723 720.716 120.165 625.376 127.371C599.849 129.301 574.714 130.266 550.124 130.266Z" fill="#3F3D56"/>
<path d="M274.62 161.09H41.5171V452.468H274.62V161.09Z" fill="#E6E6E6"/>
<path d="M107.701 185.649H57.751V218.95H107.701V185.649Z" fill="#3F3D56"/>
<path d="M251.309 250.585H58.167V262.24H251.309V250.585Z" fill="#3F3D56"/>
<path d="M251.309 281.388H58.167V293.043H251.309V281.388Z" fill="#3F3D56"/>
<path d="M251.309 312.191H58.167V323.846H251.309V312.191Z" fill="#3F3D56"/>
<path d="M251.309 342.994H58.167V354.649H251.309V342.994Z" fill="#3F3D56"/>
<path d="M251.309 373.796H58.167V385.452H251.309V373.796Z" fill="#3F3D56"/>
<path d="M320.407 452.052C320.397 463.048 316.419 473.671 309.204 481.968C301.989 490.266 292.022 495.682 281.134 497.22C270.247 498.758 259.17 496.315 249.939 490.34C240.708 484.366 233.943 475.261 230.887 464.699C227.831 454.136 228.69 442.825 233.305 432.845C237.92 422.865 245.982 414.885 256.008 410.372C266.035 405.859 277.354 405.117 287.885 408.28C298.416 411.444 307.451 418.302 313.331 427.593C317.955 434.913 320.409 443.394 320.407 452.052V452.052Z" fill="#6C63FF"/>
<path d="M313.331 427.593L268.259 472.657C265.426 468.271 249.644 447.89 249.644 447.89C251.667 445.846 253.825 443.94 256.104 442.187L269.191 459.636L308.053 420.775C310.024 422.876 311.791 425.159 313.331 427.593V427.593Z" fill="white"/>
<path d="M538.348 503.51L527.5 607L604.5 606L608.702 600.05L612.5 605.5L684.5 598.5C684.5 598.5 681.326 500.103 671.113 496.695C660.901 493.288 538.348 503.51 538.348 503.51Z" fill="#2F2E41"/>
<path d="M605.5 274C627.315 274 645 256.091 645 234C645 211.909 627.315 194 605.5 194C583.685 194 566 211.909 566 234C566 256.091 583.685 274 605.5 274Z" fill="#FFB8B8"/>
<path d="M603.055 289.551C603.055 289.551 632.428 294.114 634.865 285L649.858 305.493L651 510.47C651 510.47 528.854 525.274 524.287 501.36C519.721 477.446 571.091 288.412 571.091 288.412L584.024 287.577C584.024 287.577 600.772 289.551 603.055 289.551Z" fill="#6C63FF"/>
<path d="M583.767 278L564.247 284.761L508.503 298.406L510.779 434.854C510.779 434.854 462.998 571.303 484.613 581.536C506.228 591.77 536.944 567.891 546.045 550.835C555.146 533.779 587 297.269 587 292.72C587 288.172 583.767 278 583.767 278Z" fill="#3F3D56"/>
<path d="M634.159 278L641.81 284.77L696 309.821L668.905 447.6C668.905 447.6 705.032 572.853 691.484 579.685C677.937 586.517 657.615 605.875 653.099 594.488C648.584 583.101 621.991 290.587 634.159 278Z" fill="#3F3D56"/>
<path d="M665.315 460.136C665.315 460.136 614.153 438.903 613.016 457.901C611.879 476.898 671 490.309 671 484.721C671 479.133 665.315 460.136 665.315 460.136Z" fill="#FFB8B8"/>
<path d="M540.777 452C540.777 452 599.379 496.836 576.84 508.333C554.301 519.83 525 468.095 525 468.095L540.777 452Z" fill="#FFB8B8"/>
<path d="M623.486 175.517C623.673 175.12 623.974 174.788 624.351 174.563C624.728 174.339 625.163 174.233 625.6 174.259C607.363 173.165 588.154 175.296 572.897 185.373C568.624 188.195 564.634 191.646 559.769 193.236L563.718 196.341L559 197.783L565.943 202.282C565.242 203.082 564.342 203.681 563.336 204.019C562.329 204.357 561.252 204.422 560.212 204.208C563.229 205.092 565.451 207.784 566.579 210.726C567.708 213.668 567.91 216.872 568.101 220.018C569.267 215.478 574.208 212.806 578.875 212.535C583.543 212.263 588.095 213.807 592.637 214.917C602.53 217.328 612.805 217.724 622.853 216.083C619.441 222.949 622.32 231.139 625.216 238.239L630.999 252.416C634.21 252.74 636.48 249.538 638.899 247.397C641.104 245.445 632.326 262.612 633.685 261.983C635.451 261.166 654.082 240.54 654.955 238.798C658.935 230.848 661.324 221.98 660.964 213.092C660.605 204.203 657.362 195.31 651.251 188.861C647.103 184.482 641.364 183.715 637.135 180.076C635.47 178.644 635.464 177.525 633.177 176.69C632.417 176.412 623.611 175.237 623.486 175.517Z" fill="#2F2E41"/>
<path d="M516.952 302.404L508.974 299L445.157 403.374C445.157 403.374 433.761 430.602 454.274 443.082C474.786 455.561 522.65 493 522.65 493L550 451.023C550 451.023 494.16 424.93 497.578 414.719C500.997 404.509 519.231 377.281 519.231 377.281L516.952 302.404Z" fill="#3F3D56"/>
<path d="M681.814 308L696.477 310.273C696.477 310.273 757.385 430.727 742.722 453.455C728.059 476.182 668.279 508 668.279 508C668.279 508 667.151 470.5 657 456.864L691.965 443.227L672.791 368.227L681.814 308Z" fill="#3F3D56"/>
</g>
<defs>
<clipPath id="clip0">
<rect width="816.362" height="662.161" fill="white"/>
</clipPath>
</defs>
</svg>
