<svg width="1500" height="812" viewBox="0 0 1500 812" fill="none" xmlns="http://www.w3.org/2000/svg">
<path d="M1149.53 601.999L1136.79 601.998L1130.73 552.86L1149.53 552.861L1149.53 601.999Z" fill="#FFB8B8"/>
<path d="M1152.78 597.84L1127.69 597.839H1127.69C1123.45 597.839 1119.39 599.524 1116.39 602.522C1113.39 605.52 1111.7 609.587 1111.7 613.827V614.347L1152.78 614.348L1152.78 597.84Z" fill="#2F2E41"/>
<path d="M1238.75 593.273L1226.39 596.334L1208.7 550.091L1226.95 545.574L1238.75 593.273Z" fill="#FFB8B8"/>
<path d="M1240.91 588.456L1216.56 594.482L1216.55 594.483C1212.44 595.502 1208.9 598.114 1206.71 601.745C1204.52 605.376 1203.86 609.728 1204.88 613.844L1205 614.348L1244.87 604.48L1240.91 588.456Z" fill="#2F2E41"/>
<path d="M1191.63 393.519L1202.83 457.284C1202.83 457.284 1207.14 465.039 1205.41 468.486C1203.69 471.933 1202.83 471.933 1205.41 473.656C1208 475.38 1211.45 473.656 1210.58 477.965C1210.07 480.519 1209.78 483.114 1209.72 485.72L1233.85 568.443C1233.85 568.443 1249.36 575.336 1238.16 579.645C1226.96 583.953 1215.75 587.4 1213.17 583.092C1210.58 578.783 1213.17 573.613 1213.17 573.613L1173.53 478.826C1173.53 478.826 1167.5 470.209 1167.5 465.039C1167.5 459.869 1147.68 422.816 1147.68 422.816C1147.68 422.816 1146.82 459.869 1145.96 462.454C1145.1 465.039 1147.68 470.209 1147.68 473.656C1147.68 477.103 1149.4 477.103 1147.68 478.826C1145.96 480.55 1145.96 500.369 1145.96 500.369C1145.96 500.369 1156.3 577.06 1150.27 577.921C1144.23 578.783 1127 577.06 1127 573.613C1126.92 572.714 1127.13 571.815 1127.6 571.042C1128.06 570.269 1128.76 569.661 1129.58 569.304L1118.38 503.816C1118.38 503.816 1119.24 499.507 1117.52 496.06C1115.8 492.614 1115.8 492.613 1115.8 490.89C1115.8 489.167 1116.66 488.305 1115.8 487.443C1115.23 486.699 1114.93 485.791 1114.94 484.858C1114.94 484.858 1116.66 479.688 1115.8 478.826C1114.94 477.965 1095.98 413.337 1102.01 405.582C1108.04 397.827 1191.63 393.519 1191.63 393.519Z" fill="#2F2E41"/>
<path d="M1153.09 255.916C1140.71 255.916 1130.68 245.885 1130.68 233.512C1130.68 221.138 1140.71 211.107 1153.09 211.107C1165.46 211.107 1175.49 221.138 1175.49 233.512C1175.49 245.885 1165.46 255.916 1153.09 255.916Z" fill="#FFB8B8"/>
<path d="M1168.92 249.736C1167.77 248.963 1167.72 247.195 1168.11 245.761C1168.49 244.327 1169.2 242.916 1169.14 241.457C1168.97 237.46 1163.46 235.856 1163.15 231.878C1162.96 229.431 1164.85 226.726 1163.76 224.607C1163.07 223.27 1161.46 222.823 1159.99 222.567C1154.31 221.584 1148.49 221.663 1142.83 222.797L1142 220.629L1137.81 223.396C1137.58 222.05 1135.72 221.915 1134.5 222.561C1133.28 223.207 1132.23 224.322 1130.9 224.537C1128.78 224.881 1127.11 222.588 1127.22 220.381C1127.33 218.175 1128.68 216.176 1130.09 214.434C1133.61 210.065 1137.89 206.362 1142.72 203.498L1141.56 201.401L1144.05 202.402L1144.32 199.894L1146.75 201.259L1146.79 199C1149.38 201.985 1153.91 201.882 1157.88 202.151C1164.53 202.459 1170.91 204.831 1176.14 208.938C1178.75 211.07 1180.89 213.722 1182.42 216.726C1183.95 219.73 1184.84 223.019 1185.02 226.384C1185.25 231.655 1183.43 238.07 1179.54 241.979C1176 245.532 1170.76 243.376 1168.92 249.736Z" fill="#2F2E41"/>
<path d="M1098.11 450.882C1099.25 449.815 1100.14 448.512 1100.72 447.064C1101.3 445.616 1101.55 444.059 1101.47 442.501C1101.38 440.944 1100.95 439.425 1100.21 438.051C1099.48 436.678 1098.44 435.482 1097.19 434.55L1103.17 410.915L1089.69 403.781L1081.72 437.276C1080.3 439.48 1079.73 442.131 1080.12 444.727C1080.52 447.322 1081.85 449.682 1083.88 451.359C1085.9 453.037 1088.46 453.914 1091.09 453.826C1093.71 453.738 1096.21 452.691 1098.11 450.882Z" fill="#FFB8B8"/>
<path d="M1134.13 420.296C1161.37 420.298 1186.44 407.972 1186.77 407.803L1187.05 407.662L1189.34 352.816C1190 350.878 1203.05 312.634 1205.26 300.479C1207.5 288.163 1175.05 277.355 1171.11 276.091L1170.21 266.184L1133.84 262.265L1129.23 274.941L1116.19 279.834C1114.71 280.389 1113.48 281.467 1112.75 282.865C1112.01 284.262 1111.81 285.881 1112.19 287.416L1119.44 316.906L1105.17 414.473L1105.54 414.638C1114.56 418.532 1124.31 420.46 1134.13 420.296Z" fill="#6C63FF"/>
<path d="M1101.62 426.417L1114.24 374.459L1127.92 311.759L1120.98 280.509H1115.04C1114.93 280.509 1104.14 280.671 1101.82 294.607C1099.57 308.105 1092.79 351.064 1092.72 351.496L1081.25 424.879L1101.62 426.417Z" fill="#6C63FF"/>
<path d="M1155.63 417.637C1155.7 416.079 1156.11 414.556 1156.84 413.176C1157.57 411.795 1158.59 410.591 1159.83 409.647C1161.07 408.704 1162.5 408.044 1164.03 407.714C1165.55 407.385 1167.13 407.393 1168.65 407.74L1182.76 387.858L1196.93 393.484L1176.61 421.281C1175.86 423.797 1174.22 425.951 1171.98 427.333C1169.75 428.715 1167.09 429.231 1164.5 428.781C1161.91 428.332 1159.58 426.949 1157.95 424.895C1156.31 422.841 1155.49 420.259 1155.63 417.637V417.637Z" fill="#FFB8B8"/>
<path d="M1183.12 416.163L1225.81 360.784L1209.81 310.516C1208.64 297.877 1200.73 294.348 1200.4 294.204L1199.88 293.984L1185.97 331.101L1196.19 358.352L1171.1 400.538L1183.12 416.163Z" fill="#6C63FF"/>
<path d="M1044.79 155H405.41C403.099 155 400.811 155.455 398.675 156.34C396.54 157.224 394.6 158.52 392.966 160.154C391.332 161.789 390.036 163.729 389.151 165.864C388.267 167.999 387.812 170.287 387.812 172.598V528.851C387.812 531.162 388.267 533.45 389.151 535.585C390.036 537.721 391.332 539.661 392.966 541.295C394.6 542.929 396.54 544.225 398.675 545.11C400.811 545.994 403.099 546.449 405.41 546.449H1044.79C1049.46 546.449 1053.94 544.595 1057.24 541.295C1060.54 537.994 1062.39 533.518 1062.39 528.851V172.598C1062.39 167.931 1060.54 163.455 1057.24 160.154C1053.94 156.854 1049.46 155 1044.79 155Z" fill="#3F3D56"/>
<path d="M1038.8 186.102H411.406V540.015H1038.8V186.102Z" fill="white"/>
<path d="M724.565 176.449C728.119 176.449 731 173.568 731 170.015C731 166.461 728.119 163.58 724.565 163.58C721.011 163.58 718.13 166.461 718.13 170.015C718.13 173.568 721.011 176.449 724.565 176.449Z" fill="white"/>
<path d="M859.374 540.015H411.406V186.102L859.374 540.015Z" fill="#F2F2F2"/>
<path d="M509.573 513.531C542.88 513.531 569.88 486.531 569.88 453.224C569.88 419.918 542.88 392.917 509.573 392.917C476.267 392.917 449.267 419.918 449.267 453.224C449.267 486.531 476.267 513.531 509.573 513.531Z" fill="#6C63FF"/>
<path d="M522.999 498.551C508.162 498.551 493.658 494.151 481.322 485.908C468.986 477.665 459.371 465.949 453.693 452.242C448.015 438.535 446.53 423.452 449.424 408.9C452.319 394.348 459.463 380.982 469.955 370.491C480.446 360 493.812 352.855 508.364 349.96C522.916 347.066 537.999 348.552 551.706 354.229C565.413 359.907 577.129 369.522 585.372 381.858C593.615 394.195 598.015 408.698 598.015 423.535C598.015 433.386 596.074 443.141 592.304 452.242C588.534 461.343 583.009 469.613 576.043 476.579C569.077 483.545 560.807 489.07 551.706 492.84C542.605 496.61 532.85 498.551 522.999 498.551ZM522.999 349.5C508.356 349.5 494.042 353.842 481.867 361.977C469.692 370.112 460.203 381.675 454.599 395.203C448.996 408.731 447.529 423.617 450.386 437.978C453.243 452.34 460.294 465.532 470.648 475.886C481.002 486.24 494.194 493.291 508.555 496.147C522.916 499.004 537.803 497.538 551.331 491.934C564.859 486.331 576.422 476.842 584.557 464.667C592.692 452.492 597.034 438.178 597.034 423.535C597.034 413.812 595.119 404.185 591.398 395.203C587.678 386.22 582.224 378.059 575.349 371.184C568.475 364.309 560.313 358.856 551.331 355.135C542.348 351.415 532.721 349.5 522.999 349.5Z" fill="#3F3D56"/>
<path d="M893.558 369.969H834.953V382.215H893.558V369.969Z" fill="#3F3D56"/>
<path d="M949.004 303.627H779.506V308.875H949.004V303.627Z" fill="#3F3D56"/>
<path d="M949.004 324.246H779.506V329.494H949.004V324.246Z" fill="#3F3D56"/>
<path d="M949.004 344.865H779.506V350.114H949.004V344.865Z" fill="#3F3D56"/>
<path d="M994.409 207.282H969.917V231.773H994.409V207.282Z" fill="#6C63FF"/>
<path d="M1005.78 243.145H976.04V213.405H1005.78V243.145ZM977.333 241.852H1004.49V214.698H977.333L977.333 241.852Z" fill="#CCCCCC"/>
<path d="M1080.01 533.58H1018.78V529.168C1018.78 529.053 1018.76 528.94 1018.71 528.833C1018.67 528.727 1018.6 528.631 1018.52 528.55C1018.44 528.468 1018.34 528.404 1018.24 528.36C1018.13 528.316 1018.02 528.293 1017.9 528.293H996.91C996.795 528.293 996.681 528.316 996.575 528.36C996.469 528.404 996.373 528.468 996.292 528.55C996.21 528.631 996.146 528.727 996.102 528.833C996.058 528.939 996.035 529.053 996.035 529.168V533.58H982.915V529.168C982.915 529.053 982.892 528.94 982.848 528.833C982.804 528.727 982.74 528.631 982.659 528.55C982.577 528.468 982.481 528.404 982.375 528.36C982.269 528.316 982.155 528.293 982.04 528.293H961.047C960.932 528.293 960.819 528.316 960.713 528.36C960.606 528.404 960.51 528.468 960.429 528.55C960.348 528.631 960.283 528.727 960.239 528.833C960.195 528.94 960.173 529.053 960.173 529.168V533.58H947.052V529.168C947.052 529.053 947.029 528.94 946.985 528.833C946.942 528.727 946.877 528.631 946.796 528.55C946.715 528.468 946.618 528.404 946.512 528.36C946.406 528.316 946.292 528.293 946.177 528.293H925.184C925.069 528.293 924.956 528.316 924.85 528.36C924.743 528.404 924.647 528.468 924.566 528.55C924.485 528.631 924.42 528.727 924.376 528.833C924.332 528.94 924.31 529.053 924.31 529.168V533.58H911.189V529.168C911.189 529.053 911.167 528.94 911.123 528.833C911.079 528.727 911.014 528.631 910.933 528.55C910.852 528.468 910.755 528.404 910.649 528.36C910.543 528.316 910.429 528.293 910.314 528.293H889.322C889.207 528.293 889.093 528.316 888.987 528.36C888.881 528.404 888.784 528.468 888.703 528.55C888.622 528.631 888.557 528.727 888.513 528.833C888.469 528.939 888.447 529.053 888.447 529.168V533.58H875.326V529.168C875.326 529.053 875.304 528.94 875.26 528.833C875.216 528.727 875.151 528.631 875.07 528.55C874.989 528.468 874.892 528.404 874.786 528.36C874.68 528.316 874.566 528.293 874.452 528.293H853.459C853.344 528.293 853.23 528.316 853.124 528.36C853.018 528.404 852.921 528.468 852.84 528.55C852.759 528.631 852.694 528.727 852.651 528.833C852.607 528.94 852.584 529.053 852.584 529.168V533.58H839.463V529.168C839.463 529.053 839.441 528.94 839.397 528.833C839.353 528.727 839.288 528.631 839.207 528.55C839.126 528.468 839.03 528.404 838.923 528.36C838.817 528.316 838.704 528.293 838.589 528.293H817.596C817.481 528.293 817.367 528.316 817.261 528.36C817.155 528.404 817.058 528.468 816.977 528.55C816.896 528.631 816.832 528.727 816.788 528.833C816.744 528.94 816.721 529.053 816.721 529.168V533.58H803.601V529.168C803.601 529.053 803.578 528.94 803.534 528.833C803.49 528.727 803.426 528.631 803.344 528.55C803.263 528.468 803.167 528.404 803.061 528.36C802.954 528.316 802.841 528.293 802.726 528.293H638.281C638.167 528.293 638.053 528.316 637.947 528.36C637.84 528.404 637.744 528.468 637.663 528.55C637.582 528.631 637.517 528.727 637.473 528.833C637.429 528.94 637.407 529.053 637.407 529.168V533.58H624.286V529.168C624.286 529.053 624.263 528.94 624.219 528.833C624.176 528.727 624.111 528.631 624.03 528.55C623.949 528.468 623.852 528.404 623.746 528.36C623.64 528.316 623.526 528.293 623.411 528.293H602.419C602.304 528.293 602.19 528.316 602.084 528.36C601.978 528.404 601.881 528.468 601.8 528.55C601.719 528.631 601.654 528.727 601.61 528.833C601.566 528.94 601.544 529.053 601.544 529.168V533.58H588.423V529.168C588.423 529.053 588.401 528.94 588.357 528.833C588.313 528.727 588.248 528.631 588.167 528.55C588.086 528.468 587.989 528.404 587.883 528.36C587.777 528.316 587.663 528.293 587.549 528.293H566.556C566.441 528.293 566.327 528.316 566.221 528.36C566.115 528.404 566.018 528.468 565.937 528.55C565.856 528.631 565.791 528.727 565.747 528.833C565.703 528.94 565.681 529.053 565.681 529.168V533.58H552.56V529.168C552.56 529.053 552.538 528.94 552.494 528.833C552.45 528.727 552.385 528.631 552.304 528.55C552.223 528.468 552.126 528.404 552.02 528.36C551.914 528.316 551.8 528.293 551.686 528.293H530.693C530.578 528.293 530.464 528.316 530.358 528.36C530.252 528.404 530.155 528.468 530.074 528.55C529.993 528.631 529.928 528.727 529.885 528.833C529.841 528.94 529.818 529.053 529.818 529.168V533.58H516.697V529.168C516.697 529.053 516.675 528.94 516.631 528.833C516.587 528.727 516.522 528.631 516.441 528.55C516.36 528.468 516.264 528.404 516.157 528.36C516.051 528.316 515.938 528.293 515.823 528.293H494.83C494.715 528.293 494.601 528.316 494.495 528.36C494.389 528.404 494.293 528.468 494.211 528.55C494.13 528.631 494.066 528.727 494.022 528.833C493.978 528.94 493.955 529.053 493.955 529.168V533.58H480.835V529.168C480.835 529.053 480.812 528.94 480.768 528.833C480.724 528.727 480.66 528.631 480.578 528.55C480.497 528.468 480.401 528.404 480.295 528.36C480.188 528.316 480.075 528.293 479.96 528.293H458.967C458.735 528.293 458.512 528.386 458.348 528.55C458.184 528.714 458.092 528.936 458.092 529.168V533.58H444.972V529.168C444.972 529.053 444.949 528.94 444.905 528.833C444.861 528.727 444.797 528.631 444.715 528.55C444.634 528.468 444.538 528.404 444.432 528.36C444.326 528.316 444.212 528.293 444.097 528.293H423.104C422.872 528.293 422.65 528.386 422.486 528.55C422.321 528.714 422.229 528.936 422.229 529.168V533.58H381.993C376.425 533.58 371.086 535.791 367.149 539.728C363.212 543.665 361 549.005 361 554.573V564.065C361 569.633 363.212 574.972 367.149 578.909C371.086 582.846 376.425 585.058 381.993 585.058H1080.01C1085.57 585.058 1090.91 582.846 1094.85 578.909C1098.79 574.972 1101 569.633 1101 564.065V554.573C1101 551.816 1100.46 549.086 1099.4 546.539C1098.35 543.992 1096.8 541.678 1094.85 539.728C1092.9 537.779 1090.59 536.233 1088.04 535.178C1085.49 534.123 1082.76 533.58 1080.01 533.58Z" fill="#3F3D56"/>
<path d="M853.885 413.965L859.451 415.928V418.662L851.043 415.098V412.793L859.451 409.229V411.963L853.885 413.965ZM862.664 421.221H860.564L865.799 405.781H867.898L862.664 421.221ZM875.018 413.936L869.344 411.953V409.238L877.85 412.803V415.098L869.344 418.672V415.947L875.018 413.936Z" fill="black"/>
</svg>
