<svg width="903" height="743" viewBox="0 0 903 743" fill="none" xmlns="http://www.w3.org/2000/svg">
<g clip-path="url(#clip0)">
<path d="M744.67 594.817C727.496 628.316 705.714 660.713 678.153 690.036C677.541 690.698 676.923 691.343 676.299 692L611 661.101C611.399 660.437 611.838 659.692 612.308 658.878C640.359 610.907 809.682 318.277 804.332 252C804.955 257.466 825.025 438.238 744.67 594.817Z" fill="#E6E6E6"/>
<path d="M691.463 695.483C690.555 696.002 689.623 696.509 688.686 697L640 673.85C640.681 673.365 641.474 672.792 642.385 672.147C657.301 661.39 701.653 629.118 745.052 594.435C791.691 557.163 837.236 517.116 844 498C842.626 502.383 799.938 635.629 691.463 695.483Z" fill="#E6E6E6"/>
<path d="M747 190.256H743.23V86.848C743.23 70.9753 736.935 55.7527 725.73 44.5291C714.524 33.3054 699.326 27 683.479 27H464.751C448.904 27 433.706 33.3054 422.501 44.5291C411.295 55.7527 405 70.9753 405 86.848V654.152C405 670.025 411.295 685.247 422.501 696.471C433.706 707.695 448.904 714 464.751 714H683.478C699.325 714 714.523 707.695 725.729 696.471C736.934 685.247 743.229 670.025 743.229 654.152V263.863H746.999L747 190.256Z" fill="#3F3D56"/>
<path d="M685.389 43.0001H656.84C658.153 46.2203 658.655 49.7144 658.301 53.1743C657.946 56.6343 656.747 59.9539 654.807 62.8407C652.868 65.7275 650.249 68.0928 647.181 69.7283C644.112 71.3638 640.689 72.2192 637.212 72.2191H511.915C508.439 72.2189 505.016 71.3633 501.948 69.7279C498.88 68.0926 496.261 65.7275 494.322 62.8411C492.383 59.9547 491.184 56.6356 490.829 53.1761C490.474 49.7166 490.976 46.2229 492.289 43.0029H465.619C453.786 43.0029 442.436 47.7057 434.069 56.0766C425.701 64.4476 421 75.8011 421 87.6394V653.363C421 665.202 425.701 676.555 434.069 684.926C442.436 693.297 453.786 698 465.619 698H685.381C697.214 698 708.563 693.297 716.931 684.926C725.299 676.555 730 665.202 730 653.363V653.363V87.6365C730 75.7982 725.299 64.4447 716.931 56.0737C708.563 47.7028 697.214 43 685.381 43H685.389V43.0001Z" fill="white"/>
<path d="M576.5 667C590.031 667 601 656.031 601 642.5C601 628.969 590.031 618 576.5 618C562.969 618 552 628.969 552 642.5C552 656.031 562.969 667 576.5 667Z" fill="#E6E6E6"/>
<path d="M477.212 415C474.89 415 473 417.243 473 420C473 422.757 474.89 425 477.212 425H675.788C678.11 425 680 422.757 680 420C680 417.243 678.11 415 675.788 415H477.212Z" fill="#E6E6E6"/>
<path d="M477.212 528C474.89 528 473 530.243 473 533C473 535.757 474.89 538 477.212 538H675.788C678.11 538 680 535.757 680 533C680 530.243 678.11 528 675.788 528H477.212Z" fill="#E6E6E6"/>
<path d="M477.173 444C474.872 444 473 446.243 473 449C473 451.757 474.872 454 477.173 454H561.827C564.128 454 566 451.757 566 449C566 446.243 564.128 444 561.827 444H477.173Z" fill="#E6E6E6"/>
<path d="M477.212 472C474.89 472 473 474.243 473 477C473 479.757 474.89 482 477.212 482H675.788C678.11 482 680 479.757 680 477C680 474.243 678.11 472 675.788 472H477.212Z" fill="#E6E6E6"/>
<path d="M477.173 500C474.872 500 473 502.243 473 505C473 507.757 474.872 510 477.173 510H561.827C564.128 510 566 507.757 566 505C566 502.243 564.128 500 561.827 500H477.173Z" fill="#E6E6E6"/>
<path d="M514.154 197H637.846C639.213 197.002 640.523 197.541 641.489 198.499C642.455 199.457 642.998 200.757 643 202.112V329.888C642.998 331.243 642.455 332.543 641.489 333.501C640.523 334.459 639.213 334.998 637.846 335H514.154C512.787 334.998 511.477 334.459 510.511 333.501C509.545 332.543 509.002 331.243 509 329.888V202.112C509.002 200.757 509.545 199.457 510.511 198.499C511.477 197.541 512.787 197.002 514.154 197Z" fill="#6C63FF"/>
<path d="M611.495 309C611.955 309.001 612.41 308.911 612.836 308.735C613.261 308.56 613.647 308.302 613.973 307.977C614.299 307.652 614.557 307.266 614.733 306.841C614.909 306.416 615 305.96 615 305.5C615 305.04 614.909 304.584 614.733 304.159C614.557 303.734 614.299 303.348 613.973 303.023C613.647 302.698 613.261 302.44 612.836 302.265C612.41 302.089 611.955 301.999 611.495 302H540.505C540.045 301.999 539.59 302.089 539.164 302.265C538.739 302.44 538.353 302.698 538.027 303.023C537.701 303.348 537.443 303.734 537.267 304.159C537.091 304.584 537 305.04 537 305.5C537 305.96 537.091 306.416 537.267 306.841C537.443 307.266 537.701 307.652 538.027 307.977C538.353 308.302 538.739 308.56 539.164 308.735C539.59 308.911 540.045 309.001 540.505 309H611.495Z" fill="white"/>
<path d="M611.5 288C612.428 288 613.318 287.684 613.975 287.121C614.631 286.559 615 285.796 615 285C615 284.204 614.631 283.441 613.975 282.879C613.318 282.316 612.428 282 611.5 282H540.5C540.04 282 539.585 282.078 539.161 282.228C538.736 282.379 538.35 282.6 538.025 282.879C537.7 283.157 537.442 283.488 537.266 283.852C537.091 284.216 537 284.606 537 285C537 285.394 537.091 285.784 537.266 286.148C537.442 286.512 537.7 286.843 538.025 287.121C538.35 287.4 538.736 287.621 539.161 287.772C539.585 287.922 540.04 288 540.5 288H611.5Z" fill="white"/>
<path d="M576 223C580.351 223 584.605 224.29 588.223 226.708C591.84 229.125 594.66 232.561 596.325 236.581C597.99 240.601 598.426 245.024 597.577 249.292C596.728 253.56 594.633 257.48 591.556 260.556C588.48 263.633 584.56 265.728 580.292 266.577C576.024 267.426 571.601 266.99 567.581 265.325C563.561 263.66 560.125 260.84 557.708 257.223C555.29 253.605 554 249.351 554 245C554.007 239.167 556.327 233.575 560.451 229.451C564.575 225.327 570.167 223.007 576 223V223Z" fill="white"/>
<path d="M808 297C853.84 297 891 259.616 891 213.5C891 167.384 853.84 130 808 130C762.16 130 725 167.384 725 213.5C725 259.616 762.16 297 808 297Z" fill="#6C63FF"/>
<path d="M851.088 244.059L851.094 244.065C851.955 244.931 852.456 245.532 852.742 245.951C852.881 246.155 852.951 246.289 852.984 246.362C852.984 246.364 852.983 246.367 852.982 246.37C852.957 246.462 852.916 246.585 852.838 246.798C852.823 246.84 852.805 246.888 852.786 246.941C852.731 247.093 852.661 247.282 852.594 247.475C851.801 249.38 850.84 251.209 849.724 252.941C847.454 256.409 845.789 257.974 843.397 259.1C842.251 259.639 840.625 260.261 837.626 259.886C834.483 259.493 829.706 257.984 822.42 253.832L822.396 253.818L822.372 253.805C811.156 247.681 800.895 239.919 791.919 230.767L789.777 232.868L791.899 230.747C782.862 221.71 775.191 211.376 769.135 200.077L769.124 200.057L769.113 200.037C765.015 192.666 763.513 187.828 763.117 184.634C762.738 181.58 763.355 179.927 763.89 178.773C765.018 176.345 766.592 174.658 769.998 172.352C771.722 171.221 773.542 170.248 775.436 169.443C775.624 169.37 775.819 169.29 775.973 169.228C776.035 169.202 776.091 169.179 776.137 169.161C776.299 169.096 776.405 169.056 776.483 169.03C776.556 169.067 776.668 169.132 776.826 169.242C777.24 169.529 777.838 170.034 778.702 170.904C780.32 172.535 782.474 175.468 784.545 178.676C786.594 181.849 788.417 185.059 789.398 187.116L789.401 187.121C790.61 189.644 790.905 190.823 790.887 191.608C790.873 192.248 790.643 193.008 789.462 194.666L789.458 194.671C789.236 194.985 788.981 195.328 788.712 195.69C787.947 196.719 787.067 197.904 786.476 199.031C785.529 200.839 785.039 202.895 785.565 205.426C786.073 207.874 787.892 210.907 790.08 213.879C792.363 216.981 795.37 220.438 798.723 223.814C802.074 227.19 805.51 230.226 808.584 232.536C811.524 234.745 814.524 236.596 816.925 237.128C819.454 237.688 821.52 237.171 823.312 236.212C824.417 235.62 825.591 234.736 826.606 233.972C826.973 233.696 827.32 233.435 827.634 233.209L827.645 233.202L827.656 233.194C829.291 232 830.027 231.785 830.63 231.773C831.39 231.758 832.545 232.052 835.051 233.268L835.06 233.272L835.069 233.276C837.085 234.238 840.256 236.076 843.401 238.155C846.575 240.253 849.482 242.437 851.088 244.059ZM776.377 168.982C776.377 168.982 776.378 168.983 776.379 168.983L776.377 168.982Z" stroke="white" stroke-width="6"/>
<path opacity="0.1" d="M807.547 120C788.853 119.991 770.576 125.497 755.028 135.822C739.48 146.148 727.361 160.828 720.202 178.006C713.044 195.184 711.169 214.088 714.814 232.327C718.458 250.566 727.46 267.319 740.678 280.468C753.897 293.617 770.74 302.571 789.076 306.196C807.411 309.822 826.416 307.956 843.685 300.836C860.955 293.715 875.713 281.66 886.094 266.194C896.474 250.729 902.009 232.548 902 213.953C901.987 189.039 892.032 165.149 874.322 147.532C856.611 129.915 832.594 120.012 807.547 120V120ZM807.547 295.423C791.348 295.423 775.513 290.645 762.044 281.693C748.575 272.741 738.078 260.017 731.879 245.13C725.68 230.243 724.058 213.863 727.218 198.059C730.378 182.255 738.179 167.739 749.633 156.345C761.087 144.951 775.681 137.192 791.569 134.049C807.456 130.905 823.924 132.518 838.89 138.685C853.856 144.851 866.648 155.293 875.647 168.691C884.647 182.088 889.45 197.84 889.45 213.953C889.45 224.652 887.332 235.246 883.216 245.13C879.1 255.014 873.067 263.996 865.462 271.561C857.856 279.126 848.827 285.127 838.89 289.221C828.953 293.315 818.303 295.423 807.547 295.423Z" fill="black"/>
<path d="M368.5 370C414.063 370 451 333.063 451 287.5C451 241.937 414.063 205 368.5 205C322.937 205 286 241.937 286 287.5C286 333.063 322.937 370 368.5 370Z" fill="#6C63FF"/>
<path d="M368.197 314.252L367 313.731L365.803 314.252L333.21 328.439L332.577 327.816L366.991 249.459L401.422 327.816L400.79 328.439L368.197 314.252Z" stroke="white" stroke-width="6"/>
<path opacity="0.1" d="M366.547 193C347.855 192.991 329.58 198.496 314.033 208.819C298.486 219.142 286.367 233.82 279.207 250.995C272.047 268.171 270.169 287.072 273.81 305.31C277.451 323.547 286.448 340.301 299.662 353.451C312.876 366.602 329.714 375.56 348.047 379.19C366.379 382.821 385.382 380.962 402.653 373.849C419.923 366.736 434.685 354.688 445.071 339.228C455.456 323.769 461 305.593 461 287C461 262.078 451.05 238.176 433.338 220.549C415.626 202.922 391.602 193.012 366.547 193ZM366.547 368.423C350.346 368.423 334.509 363.644 321.039 354.689C307.57 345.735 297.072 333.009 290.874 318.119C284.676 303.23 283.057 286.847 286.221 271.042C289.385 255.237 297.191 240.72 308.65 229.329C320.109 217.937 334.707 210.181 350.598 207.043C366.489 203.905 382.958 205.525 397.923 211.698C412.888 217.872 425.676 228.321 434.67 241.725C443.664 255.129 448.46 270.885 448.45 287C448.448 308.606 439.818 329.325 424.458 344.602C409.099 359.878 388.268 368.46 366.547 368.46V368.423Z" fill="black"/>
<path d="M244 597C383.176 597 496 585.807 496 572C496 558.193 383.176 547 244 547C104.824 547 -8 558.193 -8 572C-8 585.807 104.824 597 244 597Z" fill="#E6E6E6"/>
<path d="M105.5 584C147.198 584 181 550.198 181 508.5C181 466.803 147.198 433 105.5 433C63.8025 433 30 466.803 30 508.5C30 550.198 63.8025 584 105.5 584Z" fill="#6C63FF"/>
<path d="M136 477H76C73.3487 477.003 70.8069 478.06 68.9322 479.939C67.0575 481.818 66.003 484.365 66 487.023V529.977C66.003 532.635 67.0575 535.182 68.9322 537.061C70.8069 538.94 73.3487 539.997 76 540H136C138.651 539.997 141.193 538.94 143.068 537.061C144.942 535.182 145.997 532.635 146 529.977V487.023C145.997 484.365 144.942 481.818 143.068 479.939C141.193 478.06 138.651 477.003 136 477V477ZM136 482.727C136.358 482.729 136.715 482.775 137.061 482.866L106.007 507.695L75.1341 482.816C75.419 482.757 75.7091 482.727 75.9999 482.727H136ZM136 534.273H76C74.8637 534.271 73.7744 533.818 72.971 533.013C72.1675 532.208 71.7156 531.116 71.7143 529.977V487.408L104.21 513.595C104.716 514.003 105.345 514.226 105.995 514.227C106.644 514.228 107.274 514.008 107.782 513.602L140.286 487.614V529.977C140.284 531.116 139.833 532.208 139.029 533.013C138.226 533.818 137.136 534.271 136 534.273V534.273Z" fill="white"/>
<path d="M313 316.993L251.496 321L235 261.836L289.057 249L313 316.993Z" fill="#2F2E41"/>
<path d="M397.286 393.332L414.162 393.472C415.87 393.487 417.56 393.123 419.115 392.408C420.669 391.692 422.051 390.641 423.164 389.328C424.277 388.015 425.094 386.473 425.558 384.807C426.022 383.141 426.122 381.393 425.851 379.685V379.685C425.559 377.846 424.846 376.102 423.768 374.593C422.69 373.085 421.277 371.854 419.644 370.999C418.011 370.145 416.203 369.691 414.365 369.674C412.527 369.657 410.711 370.078 409.063 370.902L393.148 378.861L338.715 391.164L315.395 367L302 389.36L333.468 414L397.286 393.332Z" fill="#FFB8B8"/>
<path d="M395 568.165L375 572C361.339 529.064 346.538 488.404 346.538 456.956C327.206 478.409 303.231 490.683 275 494.537L278.077 446.986L301.154 434.714L336.473 418.461C339.565 417.038 342.901 416.215 346.302 416.037C352.914 415.69 359.422 417.794 364.571 421.944C369.721 426.094 373.148 431.997 374.195 438.516L395 568.165Z" fill="#FFB8B8"/>
<path d="M391.102 549.015C391.102 549.015 392.985 548.219 400.508 558.042C400.508 558.042 424.529 562.506 420.556 573.315C416.584 584.125 385.697 583.785 382.762 582.133C379.827 580.482 356.465 580.516 358.08 573.172C359.695 565.828 369.001 557.62 369.001 557.62C369.001 557.62 373.279 566.271 379.93 566.307C388.835 566.356 391.857 558.817 390.346 551.277C390.332 551.207 391.159 549.061 391.102 549.015Z" fill="#2F2E41"/>
<path d="M238.18 522.987C238.18 522.987 241.123 531.266 227.874 536.255C227.874 536.255 214.879 561.578 204.446 553.358C194.014 545.138 204.84 510.692 207.633 507.984C210.426 505.276 218.297 479.12 225.752 483.491C233.207 487.863 239 501.143 239 501.143C239 501.143 214.996 509.077 226.351 527.441C226.351 527.441 231.302 527.785 238.18 522.987Z" fill="#2F2E41"/>
<path d="M266 307C279.807 307 291 295.583 291 281.5C291 267.417 279.807 256 266 256C252.193 256 241 267.417 241 281.5C241 295.583 252.193 307 266 307Z" fill="#FFB8B8"/>
<path d="M287.479 348H244.127L235 321.182C250.823 316.316 247.127 302.499 244.127 289H287.479C279.074 305.888 268.633 329.788 289 334.208L287.479 348Z" fill="#FFB8B8"/>
<path d="M299.383 488.901L291.459 494.965C288.051 497.573 284.026 499.238 279.782 499.795C275.539 500.352 271.224 499.782 267.267 498.141V498.141C244.57 481.011 226.059 486.144 211.445 512C193.916 492.08 191.978 463.23 207.622 433.465L294.412 435.39L312 430L299.383 488.901Z" fill="#2F2E41"/>
<path d="M270.278 577.032C265.279 578.543 259.899 578.278 255.08 576.283C250.261 574.288 246.31 570.69 243.919 566.12C236.08 559.335 229.466 549.622 223.729 537.809C219.613 529.144 216.079 520.224 213.148 511.105C209.179 499.057 215.816 485.896 228.17 482.292C228.538 482.185 228.91 482.084 229.286 481.989C245.778 477.828 262.714 487.175 268.351 502.962L284.744 548.869C285.736 551.648 286.148 554.596 285.953 557.536C285.758 560.475 284.962 563.346 283.611 565.976C282.26 568.606 280.383 570.94 278.092 572.84C275.801 574.74 273.143 576.166 270.278 577.032V577.032Z" fill="#FFB8B8"/>
<path opacity="0.2" d="M221 532C221 532 240.167 553.636 244 566Z" fill="black"/>
<path d="M146.414 431.142L139.893 446.783C139.234 448.365 138.933 450.07 139.013 451.779C139.092 453.487 139.55 455.158 140.354 456.675C141.158 458.191 142.289 459.517 143.669 460.56C145.048 461.603 146.642 462.338 148.34 462.713V462.713C150.167 463.117 152.065 463.094 153.882 462.645C155.698 462.197 157.382 461.335 158.798 460.13C160.214 458.926 161.322 457.411 162.034 455.708C162.745 454.006 163.04 452.162 162.895 450.327L161.49 432.607L170.613 377.477L202 364.664L186.198 344L151.281 364.214L146.414 431.142Z" fill="#FFB8B8"/>
<path d="M299.457 433.608C277.383 470.391 241.883 463.936 204.194 435.133C220.089 423.343 210.34 389.404 196.511 387.117C182.212 384.753 180.492 355.742 175 341.389L241.838 317L259.892 331.1L277.946 326.908L285.347 329.513C290.164 331.209 294.342 334.328 297.319 338.449C300.297 342.571 301.93 347.498 302 352.568C286.832 374.307 275.604 397.496 299.457 433.608Z" fill="#6C63FF"/>
<path d="M308.538 403C308.538 403 305.132 385.696 293.951 391.127C282.769 396.558 282 381.4 282 381.4L290.846 331L327 368.895L308.538 403Z" fill="#6C63FF"/>
<path d="M289.478 249.88C289.478 249.88 302.318 254.658 302.497 271.621C302.49 274.475 302.081 277.314 301.281 280.055C300.418 283.165 299.688 289.922 305.225 298.987C308.843 304.871 312.107 310.962 315 317.228V317.228L300.483 318.49L298.298 294.608C297.238 283.03 294.466 271.67 290.071 260.893L289.98 260.668C289.98 260.668 283.223 272.086 270.579 271.622L275.262 267.306C275.262 267.306 259.369 273.087 250.745 274.2C249.761 274.327 248.83 274.718 248.054 275.331C247.277 275.944 246.684 276.756 246.337 277.679C245.991 278.602 245.905 279.602 246.089 280.57C246.273 281.538 246.719 282.437 247.38 283.172C247.43 283.228 247.481 283.283 247.533 283.339C252.751 288.915 263.121 301.86 256.431 311.486C249.741 321.112 255.06 324 255.06 324L245.326 318.258L240.911 315.403L240.777 318.988L217.396 315.437C217.396 315.437 211.108 314.308 225.223 299.57C225.223 299.57 229.021 293.785 227.646 288.625C226.505 284.7 226.321 280.561 227.11 276.551C230.771 259.862 243.925 226.897 289.478 249.88Z" fill="#2F2E41"/>
</g>
<defs>
<clipPath id="clip0">
<rect width="902.097" height="742.063" fill="white"/>
</clipPath>
</defs>
</svg>
