<svg width="788" height="429" viewBox="0 0 788 429" fill="none" xmlns="http://www.w3.org/2000/svg">
<path d="M437.55 59.1495C435.483 45.7952 435.483 32.2048 437.55 18.8505C437.681 18.0557 438.091 17.3329 438.707 16.8109C439.324 16.2889 440.106 16.0015 440.916 16H472.595C473.108 15.9984 473.615 16.1133 474.077 16.3361C474.539 16.5589 474.944 16.8837 475.26 17.2857C475.584 17.6931 475.81 18.1687 475.921 18.6762C476.032 19.1837 476.026 19.7098 475.902 20.2143C472.938 32.5645 472.938 45.4354 475.902 57.7857C476.026 58.2902 476.032 58.8163 475.921 59.3238C475.81 59.8313 475.584 60.3069 475.26 60.7143C474.944 61.1163 474.539 61.441 474.077 61.6638C473.615 61.8866 473.108 62.0016 472.595 62H440.916C440.106 61.9985 439.324 61.7111 438.707 61.1891C438.091 60.6671 437.681 59.9443 437.55 59.1495V59.1495Z" fill="#6C63FF"/>
<path d="M435.66 105H419.34C418.72 104.999 418.125 104.735 417.686 104.264C417.247 103.794 417.001 103.156 417 102.49V101.51C417.001 100.844 417.247 100.206 417.686 99.7359C418.125 99.2654 418.72 99.0007 419.34 99H435.66C436.28 99.0007 436.875 99.2654 437.314 99.7359C437.753 100.206 437.999 100.844 438 101.51V102.49C437.999 103.156 437.753 103.794 437.314 104.264C436.875 104.735 436.28 104.999 435.66 105Z" fill="white"/>
<path d="M435.66 117H419.34C418.72 116.999 418.125 116.735 417.686 116.264C417.247 115.794 417.001 115.156 417 114.49V113.51C417.001 112.844 417.247 112.206 417.686 111.736C418.125 111.265 418.72 111.001 419.34 111H435.66C436.28 111.001 436.875 111.265 437.314 111.736C437.753 112.206 437.999 112.844 438 113.51V114.49C437.999 115.156 437.753 115.794 437.314 116.264C436.875 116.735 436.28 116.999 435.66 117Z" fill="white"/>
<path d="M463.549 37H446.451C445.801 36.9993 445.178 36.7346 444.719 36.2641C444.259 35.7937 444.001 35.1557 444 34.4904V33.5096C444.001 32.8443 444.259 32.2063 444.719 31.7359C445.178 31.2654 445.801 31.0007 446.451 31H463.549C464.199 31.0007 464.822 31.2654 465.281 31.7359C465.741 32.2063 465.999 32.8443 466 33.5096V34.4904C465.999 35.1557 465.741 35.7937 465.281 36.2641C464.822 36.7346 464.199 36.9993 463.549 37Z" fill="white"/>
<path d="M344.55 84.0875C342.483 70.4429 342.483 56.5571 344.55 42.9125C344.681 42.1004 345.091 41.362 345.707 40.8286C346.324 40.2953 347.107 40.0017 347.916 40H379.595C380.108 39.9984 380.615 40.1158 381.077 40.3434C381.539 40.5711 381.944 40.9029 382.26 41.3136C382.584 41.7299 382.81 42.2158 382.921 42.7344C383.032 43.2529 383.026 43.7904 382.902 44.3059C379.938 56.9246 379.938 70.0753 382.902 82.6941C383.026 83.2096 383.032 83.7471 382.921 84.2656C382.81 84.7842 382.584 85.2701 382.26 85.6864C381.944 86.0971 381.539 86.4289 381.077 86.6566C380.615 86.8842 380.108 87.0016 379.595 87H347.916C347.107 86.9983 346.324 86.7047 345.707 86.1714C345.091 85.638 344.681 84.8996 344.55 84.0875Z" fill="#FF6584"/>
<path d="M369.549 60H352.451C351.801 59.9993 351.178 59.7346 350.719 59.2641C350.259 58.7936 350.001 58.1556 350 57.4902V56.5098C350.001 55.8444 350.259 55.2064 350.719 54.7359C351.178 54.2654 351.801 54.0007 352.451 54H369.549C370.199 54.0007 370.822 54.2654 371.281 54.7359C371.741 55.2064 371.999 55.8444 372 56.5098V57.4902C371.999 58.1556 371.741 58.7936 371.281 59.2641C370.822 59.7346 370.199 59.9993 369.549 60V60Z" fill="white"/>
<path d="M369.549 69H352.451C351.801 68.9994 351.178 68.7789 350.719 68.3868C350.259 67.9947 350.001 67.4631 350 66.9086V66.0914C350.001 65.5369 350.259 65.0053 350.719 64.6132C351.178 64.2211 351.801 64.0006 352.451 64H369.549C370.199 64.0006 370.822 64.2211 371.281 64.6132C371.741 65.0053 371.999 65.5369 372 66.0914V66.9086C371.999 67.4631 371.741 67.9947 371.281 68.3868C370.822 68.7789 370.199 68.9994 369.549 69Z" fill="white"/>
<path d="M83.9576 411H704.045C704.298 411 704.541 410.947 704.72 410.854C704.899 410.76 705 410.633 705 410.5C705 410.367 704.899 410.24 704.72 410.146C704.541 410.053 704.298 410 704.045 410H83.9576C83.8319 410 83.7075 410.013 83.5913 410.038C83.4752 410.063 83.3696 410.099 83.2806 410.146C83.1917 410.192 83.1211 410.248 83.0729 410.308C83.0248 410.369 83 410.434 83 410.5C83 410.566 83.0248 410.631 83.0729 410.692C83.1211 410.752 83.1917 410.808 83.2806 410.854C83.3696 410.901 83.4752 410.937 83.5913 410.962C83.7075 410.987 83.8319 411 83.9576 411V411Z" fill="#3F3D56"/>
<path d="M402 287H109V220H402V287Z" fill="white"/>
<path d="M151.848 242C151.092 242.001 150.368 242.265 149.834 242.734C149.3 243.202 149 243.838 149 244.5C149 245.162 149.3 245.798 149.834 246.266C150.368 246.735 151.092 246.999 151.848 247H360.152C360.908 246.999 361.632 246.735 362.166 246.266C362.7 245.798 363 245.162 363 244.5C363 243.838 362.7 243.202 362.166 242.734C361.632 242.265 360.908 242.001 360.152 242H151.848Z" fill="#6C63FF"/>
<path d="M151.851 259C151.477 258.999 151.107 259.063 150.762 259.188C150.416 259.313 150.102 259.497 149.837 259.728C149.573 259.96 149.363 260.235 149.219 260.538C149.075 260.841 149.001 261.166 149 261.495C148.999 261.823 149.072 262.148 149.214 262.452C149.356 262.755 149.565 263.031 149.829 263.264C150.093 263.497 150.406 263.681 150.751 263.808C151.095 263.934 151.465 263.999 151.839 264H283.15C283.524 264.001 283.895 263.936 284.241 263.811C284.586 263.686 284.9 263.501 285.165 263.269C285.43 263.037 285.64 262.761 285.783 262.458C285.926 262.154 286 261.829 286 261.5C286 261.171 285.926 260.846 285.783 260.542C285.64 260.239 285.43 259.963 285.165 259.731C284.9 259.499 284.586 259.314 284.241 259.189C283.895 259.064 283.524 258.999 283.15 259H151.851Z" fill="#6C63FF"/>
<path d="M402 287H109V220H402V287ZM113.816 282.214H397.184V224.786H113.816V282.214Z" fill="#E5E5E5"/>
<path d="M405 185H112V117H405V185Z" fill="white"/>
<path d="M153.848 139C153.092 139.001 152.368 139.318 151.834 139.88C151.3 140.443 151 141.205 151 142C151 142.795 151.3 143.557 151.834 144.12C152.368 144.682 153.092 144.999 153.848 145H362.152C362.908 144.999 363.632 144.682 364.166 144.12C364.7 143.557 365 142.795 365 142C365 141.205 364.7 140.443 364.166 139.88C363.632 139.318 362.908 139.001 362.152 139H153.848Z" fill="#6C63FF"/>
<path d="M153.872 157C153.112 156.999 152.382 157.261 151.844 157.729C151.305 158.196 151.002 158.832 151 159.495C150.998 160.158 151.299 160.794 151.835 161.264C152.371 161.734 153.1 161.999 153.86 162H286.13C286.506 162.001 286.88 161.936 287.228 161.811C287.576 161.686 287.892 161.501 288.159 161.269C288.426 161.037 288.637 160.761 288.781 160.458C288.926 160.154 289 159.829 289 159.5C289 159.171 288.926 158.846 288.781 158.542C288.637 158.239 288.426 157.963 288.159 157.731C287.892 157.499 287.576 157.314 287.228 157.189C286.88 157.064 286.506 156.999 286.13 157H153.872Z" fill="#6C63FF"/>
<path d="M405 185H112V117H405V185ZM116.816 180.143H400.184V121.857H116.816V180.143Z" fill="#E5E5E5"/>
<path d="M466.006 227.72C465.958 226.477 466.181 225.238 466.66 224.09C467.14 222.943 467.863 221.915 468.78 221.079C469.697 220.243 470.785 219.62 471.967 219.253C473.149 218.885 474.397 218.784 475.623 218.954L489.282 192L497 205.671L482.846 229.171C482.425 231.223 481.27 233.049 479.6 234.301C477.93 235.554 475.861 236.148 473.786 235.969C471.71 235.79 469.772 234.852 468.338 233.331C466.904 231.811 466.075 229.815 466.006 227.72L466.006 227.72Z" fill="#FFB7B7"/>
<path d="M529.999 400L519.835 399.999L515 357L530 357.001L529.999 400Z" fill="#FFB7B7"/>
<path d="M532.999 410L498 409.999V409.558C498 405.962 499.436 402.514 501.99 399.971C504.545 397.429 508.01 396 511.623 396H511.624L533 396.001L532.999 410Z" fill="#2F2E41"/>
<path d="M589.998 400L579.157 399.999L574 357L590 357.001L589.998 400Z" fill="#FFB7B7"/>
<path d="M592.999 410L557 409.999V409.558C557 405.962 558.477 402.514 561.104 399.971C563.732 397.429 567.296 396 571.012 396H571.013L593 396.001L592.999 410Z" fill="#2F2E41"/>
<path d="M482.1 204L477 212C477 212 485.5 212 487.2 224L494 216L482.1 204Z" fill="#E5E5E5"/>
<path d="M565.59 187C565.59 187 578.308 220.305 580.692 240.922C583.077 261.539 587.051 316.254 587.051 316.254L595 386.828L572.744 390L563.205 318.633L541.744 248.059L536.974 318.633L533 382.863L512.333 383.656L510.744 317.047L502 232.199L506.769 191.758L565.59 187Z" fill="#2F2E41"/>
<path d="M530 87C541.046 87 550 78.0457 550 67C550 55.9543 541.046 47 530 47C518.954 47 510 55.9543 510 67C510 78.0457 518.954 87 530 87Z" fill="#FFB7B7"/>
<path d="M549.827 86L557.728 91.5492L568 195.415L504 197L512.692 124.85L520.593 104.235L526.296 96.6692L549.827 86Z" fill="#6C63FF"/>
<path d="M552 160.758L554.429 89C554.429 89 559.144 89.3633 560.731 91.7432C562.318 94.123 588.511 98.8826 588.511 98.8826L583.749 172.657C583.749 172.657 603.592 231.359 596.449 234.532C589.305 237.705 576.605 236.912 576.605 236.912L552 160.758Z" fill="#2F2E41"/>
<path d="M435.777 233.659C435.437 233.234 435.199 232.737 435.083 232.208C434.966 231.678 434.973 231.129 435.103 230.602C438.215 217.715 438.215 204.285 435.103 191.398C434.973 190.871 434.966 190.322 435.083 189.792C435.199 189.263 435.437 188.766 435.777 188.341C436.11 187.922 436.535 187.583 437.02 187.351C437.505 187.118 438.037 186.998 438.576 187H471.838C472.688 187.002 473.51 187.301 474.157 187.846C474.804 188.391 475.235 189.145 475.373 189.974C477.542 203.909 477.542 218.091 475.373 232.026C475.235 232.855 474.804 233.609 474.157 234.154C473.51 234.699 472.688 234.998 471.838 235H438.576C438.037 235.002 437.505 234.882 437.02 234.649C436.535 234.417 436.109 234.078 435.777 233.659V233.659Z" fill="#6C63FF"/>
<path d="M464.587 206H447.413C446.773 205.999 446.16 205.695 445.708 205.153C445.255 204.612 445.001 203.878 445 203.113V201.887C445.001 201.122 445.255 200.388 445.708 199.847C446.16 199.305 446.773 199.001 447.413 199H464.587C465.227 199.001 465.84 199.305 466.292 199.847C466.745 200.388 466.999 201.122 467 201.887V203.113C466.999 203.878 466.745 204.612 466.292 205.153C465.84 205.695 465.227 205.999 464.587 206V206Z" fill="white"/>
<path d="M464.587 215H447.413C446.773 214.999 446.16 214.738 445.708 214.274C445.255 213.81 445.001 213.181 445 212.525V211.475C445.001 210.819 445.255 210.19 445.708 209.726C446.16 209.262 446.773 209.001 447.413 209H464.587C465.227 209.001 465.84 209.262 466.292 209.726C466.745 210.19 466.999 210.819 467 211.475V212.525C466.999 213.181 466.745 213.81 466.292 214.274C465.84 214.738 465.227 214.999 464.587 215V215Z" fill="white"/>
<path d="M513.636 151.484L522 103L503.385 115.697L508.116 150.688L504.174 174.546C504.174 174.546 489.193 240.554 493.924 242.94C498.655 245.325 504.174 242.94 504.174 242.94L513.636 176.137V151.484Z" fill="#2F2E41"/>
<path d="M508.429 114L502.788 115.6L500.37 147.6L496.341 175.6L477 210C477 210 486.67 203.6 490.7 222L512 185.186L508.429 114Z" fill="#2F2E41"/>
<path d="M546.699 47.2345L550.443 45.7431C550.443 45.7431 542.615 37.1677 531.724 37.9134L534.787 34.5578C534.787 34.5578 527.299 31.575 520.492 39.4048C516.914 43.5207 512.774 48.3587 510.193 53.8087H506.183L507.857 57.475L502 61.1413L508.011 60.4827C507.653 62.4905 507.598 64.5401 507.848 66.564C508.106 68.5885 509.144 70.4341 510.744 71.7113V71.7113C510.744 71.7113 515.387 62.1483 515.387 60.6569V64.3854C515.387 64.3854 519.131 61.0297 519.131 58.7927L521.173 61.4026L522.194 57.3013L534.787 61.4026L532.745 58.047L540.573 59.1656L537.51 55.0642L549.63 72C549.63 72 556.57 52.8272 546.699 47.2345Z" fill="#2F2E41"/>
<path d="M552.113 220.917C552.307 219.671 552.768 218.483 553.464 217.436C554.16 216.39 555.074 215.511 556.142 214.861C557.21 214.211 558.405 213.807 559.644 213.676C560.883 213.545 562.135 213.69 563.312 214.102L582.035 190L587 205.124L568.459 225.693C567.644 227.651 566.149 229.237 564.257 230.153C562.365 231.068 560.207 231.249 558.192 230.66C556.177 230.071 554.445 228.754 553.325 226.959C552.205 225.163 551.773 223.013 552.113 220.917V220.917Z" fill="#FFB7B7"/>
<path d="M584 212.833L576.714 222L567 204.5L571.047 197L584 212.833Z" fill="#E5E5E5"/>
<path d="M582.13 102.163L588.5 99C588.5 99 593.278 105.327 594.074 110.863C594.87 116.399 598.852 123.516 598.852 127.471C598.852 131.425 610 168.595 610 168.595L584.518 220C584.518 220 578.944 201.02 567 199.438L586.907 171.758L575.759 151.987L582.13 102.163Z" fill="#2F2E41"/>
</svg>
